<svg width="80" height="102" viewBox="0 0 80 102" fill="none" xmlns="http://www.w3.org/2000/svg">
<path d="M63.6602 51.1828L43.0902 61.7849H53.0079C55.9465 62.5161 61.8236 65.6602 61.8236 72.3871C61.8236 79.114 55.9465 83.233 53.0079 84.4516H19.5815L11.5004 102C25.3362 102 53.6691 101.927 56.3138 101.634C59.6197 101.269 77.6185 96.5161 79.8224 77.1398C81.5856 61.6387 69.7823 53.3763 63.6602 51.1828Z" fill="white"/>
<path d="M19.5815 51.1828C14.6839 53.2545 4.0805 60.8344 0.848056 74.5807C-2.38438 88.3269 4.39884 97.3692 8.19451 100.172C18.8468 58.129 56.3138 51.1828 61.8236 47.5269C67.3335 43.871 77.9859 34 72.8434 17.5484C68.7293 4.3871 56.1914 0.365591 50.4367 0H11.5004C3.27236 1.75484 0.970487 9.01792 0.848056 12.4301L0.480766 58.129C5.99061 54.8387 17.3776 45.6258 18.8469 35.0968C20.3162 24.5677 27.7851 19.9857 31.3359 19.0108H47.8654C50.3142 19.8638 55.2853 22.8129 55.5792 27.7849C55.873 32.757 50.5591 37.1685 47.8654 38.7527L19.5815 51.1828Z" fill="white"/>
</svg>
